# xmcd CD database file
#
# Track frame offsets:
#	150
#	23135
#	44350
#	67930
#	90812
#	113310
#	127267
#	145080
#	174580
#	195820
#	218197
#	235155
#	252347
#	268882
#
# Disc length: 3882 seconds
#
# Revision: 0
# Processed by: cddbd v1.5.2PL0 Copyright (c) Steve Scherf et al.
# Submitted via: CDex 1.70beta2
#
DISCID=b80f280e
DTITLE=Lars Erickson and Tom Ware - The Big Bang
DYEAR=1990
DGENRE=New Age
TTITLE0=After the Silence
TTITLE1=Neptune
TTITLE2=Monolith Ballet
TTITLE3=Breakfast on the Strip
TTITLE4=The Big Bang
TTITLE5=Ocean Past
TTITLE6=Force Upon Mass
TTITLE7=The Visit
TTITLE8=Thinker
TTITLE9=Dance of the Driods
TTITLE10=Red Dwarf
TTITLE11=8-Ball in a Black Hole
TTITLE12=Cosmic Strings
TTITLE13=Squirrels in the Ozone
EXTD=YEAR: 1990
EXTT0=
EXTT1=
EXTT2=
EXTT3=
EXTT4=
EXTT5=
EXTT6=
EXTT7=
EXTT8=
EXTT9=
EXTT10=
EXTT11=
EXTT12=
EXTT13=
PLAYORDER=
